<mxfile host="app.diagrams.net" agent="Mozilla/5.0 (Windows NT 10.0; Win64; x64) AppleWebKit/537.36 (KHTML, like Gecko) Chrome/133.0.0.0 Safari/537.36" version="26.0.16">
  <diagram name="Page-1" id="wcFYcYL5rbg72Art8pJa">
    <mxGraphModel dx="1480" dy="778" grid="0" gridSize="10" guides="1" tooltips="1" connect="1" arrows="1" fold="1" page="1" pageScale="1" pageWidth="850" pageHeight="1100" math="0" shadow="0">
      <root>
        <mxCell id="0" />
        <mxCell id="1" parent="0" />
        <mxCell id="McBNdd89j7UitQKrowND-3" value="MSP430FR2311&lt;div&gt;lcd&lt;/div&gt;" style="rounded=0;whiteSpace=wrap;html=1;" vertex="1" parent="1">
          <mxGeometry x="398" y="26" width="120" height="60" as="geometry" />
        </mxCell>
        <mxCell id="McBNdd89j7UitQKrowND-4" value="MSP430FR2311&lt;div&gt;led bar&lt;/div&gt;" style="rounded=0;whiteSpace=wrap;html=1;" vertex="1" parent="1">
          <mxGeometry x="560" y="26" width="120" height="60" as="geometry" />
        </mxCell>
        <mxCell id="McBNdd89j7UitQKrowND-7" value="timers" style="rounded=0;whiteSpace=wrap;html=1;" vertex="1" parent="1">
          <mxGeometry x="236" y="128" width="120" height="60" as="geometry" />
        </mxCell>
        <mxCell id="McBNdd89j7UitQKrowND-8" value="gpio" style="rounded=0;whiteSpace=wrap;html=1;" vertex="1" parent="1">
          <mxGeometry x="398" y="128" width="120" height="60" as="geometry" />
        </mxCell>
        <mxCell id="McBNdd89j7UitQKrowND-14" value="" style="endArrow=none;dashed=1;html=1;rounded=0;" edge="1" parent="1">
          <mxGeometry width="50" height="50" relative="1" as="geometry">
            <mxPoint x="176" y="108" as="sourcePoint" />
            <mxPoint x="726" y="110" as="targetPoint" />
          </mxGeometry>
        </mxCell>
        <mxCell id="McBNdd89j7UitQKrowND-15" value="External Devices" style="text;strokeColor=none;fillColor=none;align=left;verticalAlign=middle;spacingLeft=4;spacingRight=4;overflow=hidden;points=[[0,0.5],[1,0.5]];portConstraint=eastwest;rotatable=0;whiteSpace=wrap;html=1;" vertex="1" parent="1">
          <mxGeometry x="61" y="41" width="107" height="30" as="geometry" />
        </mxCell>
        <mxCell id="McBNdd89j7UitQKrowND-17" value="Built-In" style="text;strokeColor=none;fillColor=none;align=left;verticalAlign=middle;spacingLeft=4;spacingRight=4;overflow=hidden;points=[[0,0.5],[1,0.5]];portConstraint=eastwest;rotatable=0;whiteSpace=wrap;html=1;" vertex="1" parent="1">
          <mxGeometry x="61" y="143" width="107" height="30" as="geometry" />
        </mxCell>
        <mxCell id="McBNdd89j7UitQKrowND-18" value="i2c" style="rounded=0;whiteSpace=wrap;html=1;" vertex="1" parent="1">
          <mxGeometry x="560" y="128" width="120" height="60" as="geometry" />
        </mxCell>
        <mxCell id="McBNdd89j7UitQKrowND-21" value="" style="endArrow=classic;html=1;rounded=0;exitX=0.5;exitY=1;exitDx=0;exitDy=0;entryX=0.5;entryY=0;entryDx=0;entryDy=0;" edge="1" parent="1" source="McBNdd89j7UitQKrowND-4" target="McBNdd89j7UitQKrowND-18">
          <mxGeometry width="50" height="50" relative="1" as="geometry">
            <mxPoint x="391" y="96" as="sourcePoint" />
            <mxPoint x="468" y="138" as="targetPoint" />
          </mxGeometry>
        </mxCell>
        <mxCell id="McBNdd89j7UitQKrowND-22" value="" style="endArrow=classic;html=1;rounded=0;exitX=0.5;exitY=1;exitDx=0;exitDy=0;entryX=0;entryY=0;entryDx=0;entryDy=0;" edge="1" parent="1" source="McBNdd89j7UitQKrowND-3" target="McBNdd89j7UitQKrowND-18">
          <mxGeometry width="50" height="50" relative="1" as="geometry">
            <mxPoint x="401" y="106" as="sourcePoint" />
            <mxPoint x="478" y="148" as="targetPoint" />
          </mxGeometry>
        </mxCell>
        <mxCell id="McBNdd89j7UitQKrowND-24" value="key pad" style="rounded=0;whiteSpace=wrap;html=1;" vertex="1" parent="1">
          <mxGeometry x="236" y="26" width="120" height="60" as="geometry" />
        </mxCell>
        <mxCell id="McBNdd89j7UitQKrowND-25" value="" style="endArrow=classic;html=1;rounded=0;exitX=1;exitY=1;exitDx=0;exitDy=0;entryX=0;entryY=0;entryDx=0;entryDy=0;" edge="1" parent="1" source="McBNdd89j7UitQKrowND-24" target="McBNdd89j7UitQKrowND-8">
          <mxGeometry width="50" height="50" relative="1" as="geometry">
            <mxPoint x="331" y="79" as="sourcePoint" />
            <mxPoint x="381" y="29" as="targetPoint" />
          </mxGeometry>
        </mxCell>
        <mxCell id="McBNdd89j7UitQKrowND-26" value="" style="endArrow=classic;html=1;rounded=0;exitX=0.5;exitY=1;exitDx=0;exitDy=0;entryX=0.5;entryY=0;entryDx=0;entryDy=0;" edge="1" parent="1" source="McBNdd89j7UitQKrowND-24" target="McBNdd89j7UitQKrowND-7">
          <mxGeometry width="50" height="50" relative="1" as="geometry">
            <mxPoint x="366" y="96" as="sourcePoint" />
            <mxPoint x="408" y="138" as="targetPoint" />
          </mxGeometry>
        </mxCell>
        <mxCell id="McBNdd89j7UitQKrowND-28" value="lcd" style="rounded=0;whiteSpace=wrap;html=1;" vertex="1" parent="1">
          <mxGeometry x="479" y="251" width="120" height="60" as="geometry" />
        </mxCell>
        <mxCell id="McBNdd89j7UitQKrowND-29" value="timers" style="rounded=0;whiteSpace=wrap;html=1;" vertex="1" parent="1">
          <mxGeometry x="236" y="353" width="120" height="60" as="geometry" />
        </mxCell>
        <mxCell id="McBNdd89j7UitQKrowND-30" value="gpio" style="rounded=0;whiteSpace=wrap;html=1;" vertex="1" parent="1">
          <mxGeometry x="398" y="353" width="120" height="60" as="geometry" />
        </mxCell>
        <mxCell id="McBNdd89j7UitQKrowND-31" value="" style="endArrow=none;dashed=1;html=1;rounded=0;" edge="1" parent="1">
          <mxGeometry width="50" height="50" relative="1" as="geometry">
            <mxPoint x="176" y="333" as="sourcePoint" />
            <mxPoint x="726" y="335" as="targetPoint" />
          </mxGeometry>
        </mxCell>
        <mxCell id="McBNdd89j7UitQKrowND-32" value="External Devices" style="text;strokeColor=none;fillColor=none;align=left;verticalAlign=middle;spacingLeft=4;spacingRight=4;overflow=hidden;points=[[0,0.5],[1,0.5]];portConstraint=eastwest;rotatable=0;whiteSpace=wrap;html=1;" vertex="1" parent="1">
          <mxGeometry x="61" y="266" width="107" height="30" as="geometry" />
        </mxCell>
        <mxCell id="McBNdd89j7UitQKrowND-33" value="Built-In" style="text;strokeColor=none;fillColor=none;align=left;verticalAlign=middle;spacingLeft=4;spacingRight=4;overflow=hidden;points=[[0,0.5],[1,0.5]];portConstraint=eastwest;rotatable=0;whiteSpace=wrap;html=1;" vertex="1" parent="1">
          <mxGeometry x="61" y="368" width="107" height="30" as="geometry" />
        </mxCell>
        <mxCell id="McBNdd89j7UitQKrowND-34" value="i2c" style="rounded=0;whiteSpace=wrap;html=1;" vertex="1" parent="1">
          <mxGeometry x="560" y="353" width="120" height="60" as="geometry" />
        </mxCell>
        <mxCell id="McBNdd89j7UitQKrowND-35" value="" style="endArrow=classic;html=1;rounded=0;exitX=0.5;exitY=1;exitDx=0;exitDy=0;entryX=0.5;entryY=0;entryDx=0;entryDy=0;" edge="1" parent="1" source="McBNdd89j7UitQKrowND-28" target="McBNdd89j7UitQKrowND-34">
          <mxGeometry width="50" height="50" relative="1" as="geometry">
            <mxPoint x="391" y="321" as="sourcePoint" />
            <mxPoint x="468" y="363" as="targetPoint" />
          </mxGeometry>
        </mxCell>
        <mxCell id="McBNdd89j7UitQKrowND-37" value="status led" style="rounded=0;whiteSpace=wrap;html=1;" vertex="1" parent="1">
          <mxGeometry x="319" y="251" width="120" height="60" as="geometry" />
        </mxCell>
        <mxCell id="McBNdd89j7UitQKrowND-38" value="" style="endArrow=classic;html=1;rounded=0;exitX=0.5;exitY=1;exitDx=0;exitDy=0;entryX=0.5;entryY=0;entryDx=0;entryDy=0;" edge="1" parent="1" source="McBNdd89j7UitQKrowND-37" target="McBNdd89j7UitQKrowND-30">
          <mxGeometry width="50" height="50" relative="1" as="geometry">
            <mxPoint x="331" y="304" as="sourcePoint" />
            <mxPoint x="381" y="254" as="targetPoint" />
          </mxGeometry>
        </mxCell>
        <mxCell id="McBNdd89j7UitQKrowND-40" value="" style="endArrow=classic;html=1;rounded=0;exitX=0.5;exitY=1;exitDx=0;exitDy=0;entryX=0.5;entryY=0;entryDx=0;entryDy=0;" edge="1" parent="1" source="McBNdd89j7UitQKrowND-37" target="McBNdd89j7UitQKrowND-29">
          <mxGeometry width="50" height="50" relative="1" as="geometry">
            <mxPoint x="392" y="321" as="sourcePoint" />
            <mxPoint x="408" y="363" as="targetPoint" />
          </mxGeometry>
        </mxCell>
        <mxCell id="McBNdd89j7UitQKrowND-41" value="" style="endArrow=classic;html=1;rounded=0;exitX=0.5;exitY=1;exitDx=0;exitDy=0;entryX=0.5;entryY=0;entryDx=0;entryDy=0;" edge="1" parent="1" source="McBNdd89j7UitQKrowND-28" target="McBNdd89j7UitQKrowND-30">
          <mxGeometry width="50" height="50" relative="1" as="geometry">
            <mxPoint x="545" y="321" as="sourcePoint" />
            <mxPoint x="630" y="363" as="targetPoint" />
          </mxGeometry>
        </mxCell>
        <mxCell id="McBNdd89j7UitQKrowND-42" value="led bar" style="rounded=0;whiteSpace=wrap;html=1;" vertex="1" parent="1">
          <mxGeometry x="481" y="480" width="120" height="60" as="geometry" />
        </mxCell>
        <mxCell id="McBNdd89j7UitQKrowND-43" value="timers" style="rounded=0;whiteSpace=wrap;html=1;" vertex="1" parent="1">
          <mxGeometry x="319" y="582" width="120" height="60" as="geometry" />
        </mxCell>
        <mxCell id="McBNdd89j7UitQKrowND-44" value="gpio" style="rounded=0;whiteSpace=wrap;html=1;" vertex="1" parent="1">
          <mxGeometry x="481" y="582" width="120" height="60" as="geometry" />
        </mxCell>
        <mxCell id="McBNdd89j7UitQKrowND-45" value="" style="endArrow=none;dashed=1;html=1;rounded=0;" edge="1" parent="1">
          <mxGeometry width="50" height="50" relative="1" as="geometry">
            <mxPoint x="176" y="562" as="sourcePoint" />
            <mxPoint x="726" y="564" as="targetPoint" />
          </mxGeometry>
        </mxCell>
        <mxCell id="McBNdd89j7UitQKrowND-46" value="External Devices" style="text;strokeColor=none;fillColor=none;align=left;verticalAlign=middle;spacingLeft=4;spacingRight=4;overflow=hidden;points=[[0,0.5],[1,0.5]];portConstraint=eastwest;rotatable=0;whiteSpace=wrap;html=1;" vertex="1" parent="1">
          <mxGeometry x="61" y="495" width="107" height="30" as="geometry" />
        </mxCell>
        <mxCell id="McBNdd89j7UitQKrowND-47" value="Built-In" style="text;strokeColor=none;fillColor=none;align=left;verticalAlign=middle;spacingLeft=4;spacingRight=4;overflow=hidden;points=[[0,0.5],[1,0.5]];portConstraint=eastwest;rotatable=0;whiteSpace=wrap;html=1;" vertex="1" parent="1">
          <mxGeometry x="61" y="597" width="107" height="30" as="geometry" />
        </mxCell>
        <mxCell id="McBNdd89j7UitQKrowND-50" value="status led" style="rounded=0;whiteSpace=wrap;html=1;" vertex="1" parent="1">
          <mxGeometry x="319" y="480" width="120" height="60" as="geometry" />
        </mxCell>
        <mxCell id="McBNdd89j7UitQKrowND-51" value="" style="endArrow=classic;html=1;rounded=0;exitX=1;exitY=1;exitDx=0;exitDy=0;entryX=0;entryY=0;entryDx=0;entryDy=0;" edge="1" parent="1" source="McBNdd89j7UitQKrowND-50" target="McBNdd89j7UitQKrowND-44">
          <mxGeometry width="50" height="50" relative="1" as="geometry">
            <mxPoint x="331" y="533" as="sourcePoint" />
            <mxPoint x="381" y="483" as="targetPoint" />
          </mxGeometry>
        </mxCell>
        <mxCell id="McBNdd89j7UitQKrowND-52" value="" style="endArrow=classic;html=1;rounded=0;exitX=0.5;exitY=1;exitDx=0;exitDy=0;entryX=0.5;entryY=0;entryDx=0;entryDy=0;" edge="1" parent="1" source="McBNdd89j7UitQKrowND-50" target="McBNdd89j7UitQKrowND-43">
          <mxGeometry width="50" height="50" relative="1" as="geometry">
            <mxPoint x="392" y="550" as="sourcePoint" />
            <mxPoint x="408" y="592" as="targetPoint" />
          </mxGeometry>
        </mxCell>
        <mxCell id="McBNdd89j7UitQKrowND-53" value="" style="endArrow=classic;html=1;rounded=0;exitX=0.5;exitY=1;exitDx=0;exitDy=0;entryX=0.5;entryY=0;entryDx=0;entryDy=0;" edge="1" parent="1" source="McBNdd89j7UitQKrowND-42" target="McBNdd89j7UitQKrowND-44">
          <mxGeometry width="50" height="50" relative="1" as="geometry">
            <mxPoint x="545" y="550" as="sourcePoint" />
            <mxPoint x="630" y="592" as="targetPoint" />
          </mxGeometry>
        </mxCell>
        <mxCell id="McBNdd89j7UitQKrowND-54" value="" style="endArrow=classic;html=1;rounded=0;exitX=0;exitY=1;exitDx=0;exitDy=0;entryX=1;entryY=0;entryDx=0;entryDy=0;" edge="1" parent="1" source="McBNdd89j7UitQKrowND-42" target="McBNdd89j7UitQKrowND-43">
          <mxGeometry width="50" height="50" relative="1" as="geometry">
            <mxPoint x="449" y="550" as="sourcePoint" />
            <mxPoint x="491" y="592" as="targetPoint" />
          </mxGeometry>
        </mxCell>
      </root>
    </mxGraphModel>
  </diagram>
</mxfile>
